# xmcd
#
# Track frame offsets: 
#        150
#        20163
#        39758
#        59569
#        76689
#        93668
#        117279
#        133884
#        150342
#        165964
#        184634
#        205731
#
# Disc length: 3004 seconds
#
# Revision: 10
# Processed by: cddbd v1.5.2PL0 Copyright (c) Steve Scherf et al.
# Submitted via: ExactAudioCopyFreeDBPlugin 1.0
#
DISCID=900bba0c
DTITLE=Ne-Yo - Because Of You
DYEAR=2007
DGENRE=R&B
TTITLE0=Because Of You
TTITLE1=Crazy (feat. Jay-Z)
TTITLE2=Can We Chill
TTITLE3=Do You
TTITLE4=Addicted
TTITLE5=Leaving Tonight (feat. Jennifer Husdon)
TTITLE6=Ain't Thinking About You
TTITLE7=Sex With My Ex
TTITLE8=Angel
TTITLE9=Make It Work
TTITLE10=Say It
TTITLE11=Go On Girl
EXTD=YEAR: 2007
EXTT0=
EXTT1=
EXTT2=
EXTT3=
EXTT4=
EXTT5=
EXTT6=
EXTT7=
EXTT8=
EXTT9=
EXTT10=
EXTT11=
PLAYORDER=
